
<?xml version="1.0" encoding="UTF-8"?>
<svg width="280" height="68" viewBox="0 0 280 48" fill="none" xmlns="http://www.w3.org/2000/svg" role="img" aria-labelledby="title desc">
  <title id="title">FantacalcioAI - Logo</title>
  <desc id="desc">Wordmark con monogramma a scudo, pallone e nodi AI orbitanti</desc>

  <g transform="translate(4,4)">
    <path d="M20 0 L38 6 C38 20 31 31 20 40 C9 31 2 20 2 6 L20 0Z" fill="#0A84FF"/>
    <circle cx="20" cy="18" r="9" fill="white"/>
    <polygon points="20,11 24,14 23,19 17,19 16,14" fill="#0A84FF"/>
    <circle cx="15.5" cy="16.5" r="2" fill="#0A84FF"/>
    <circle cx="24.5" cy="16.5" r="2" fill="#0A84FF"/>
    <circle cx="20" cy="21.5" r="2" fill="#0A84FF"/>
    <path d="M9,12 C20,3 31,10 30,19" stroke="#72E3A6" stroke-width="1.5" fill="none"/>
    <circle cx="9" cy="12" r="2" fill="#72E3A6"/>
    <circle cx="30" cy="19" r="2" fill="#72E3A6"/>
  </g>

  <g transform="translate(52,12)">
    <text x="0" y="16" font-family="Inter, system-ui, -apple-system, Segoe UI, Roboto, Helvetica, Arial, sans-serif"
          font-size="22" font-weight="700" fill="#1F2937" letter-spacing="0.2">
      Fantacalcio
    </text>
    <rect x="111" y="2" width="4" height="22" rx="2" fill="#0A84FF"/>
    <text x="118" y="16" font-family="Inter, system-ui, -apple-system, Segoe UI, Roboto, Helvetica, Arial, sans-serif"
          font-size="18" font-weight="800" fill="#0A84FF" letter-spacing="0.4">
      AI
    </text>
    <text x="0" y="32" font-family="Inter, system-ui, -apple-system, Segoe UI, Roboto, Helvetica, Arial, sans-serif"
          font-size="10.5" fill="#4B5563" letter-spacing="0.3">
      insights • aste • consigli in tempo reale
    </text>
  </g>
</svg>
